<svg width="41" height="40" viewBox="0 0 41 40" fill="none" xmlns="http://www.w3.org/2000/svg">
<path d="M33.3304 9.79877C35.746 11.6152 36.9892 14.3364 36.8264 17.468C36.4748 22.4552 30.4396 28.0344 24.2936 33.3212L23.5384 33.9656C22.9592 34.46 22.3404 34.9876 22.0672 35.2352L20.9996 36.1924L19.932 35.2352C19.4436 34.7988 18.1088 33.6336 17.2952 32.95C11.1168 27.7936 5.05562 22.3576 4.71682 17.52C4.55402 14.3432 5.79122 11.6152 8.20642 9.79877C9.88602 8.53557 12.0216 7.83917 14.2352 7.83917C15.29 7.83917 16.3056 8.00197 17.2688 8.31437C18.5904 8.75037 19.7884 9.44037 20.7648 10.3196C21.7544 9.43397 22.946 8.73757 24.2676 8.31437C25.2248 8.00197 26.2404 7.84557 27.2884 7.84557C29.4956 7.84557 31.6376 8.53557 33.3304 9.79877ZM34.2416 17.826C34.3652 15.4172 33.434 13.334 31.6244 11.9532C29.6908 10.4884 26.9496 10.0328 24.6452 10.7948C23.0892 11.3088 21.8068 12.2792 20.9796 13.4768C20.1592 12.2792 18.8768 11.3156 17.3208 10.7948C15.0096 10.0332 12.2688 10.4824 10.3416 11.9532C8.53162 13.3336 7.60042 15.4168 7.72442 17.8452C7.99802 21.7644 13.5512 26.7776 18.74 31.172C19.5148 31.8296 20.7648 32.9428 21.1944 33.3332C21.5656 32.9944 22.6396 32.0704 23.2584 31.5296C28.428 27.0188 33.9616 21.8756 34.2416 17.826Z" fill="#B39C59"/>
<path d="M30.4396 13.5096C31.3512 14.1996 32.406 15.4884 32.2952 17.7088C32.0476 21.2704 25.2444 27.208 21.976 30.0592C21.7024 30.2936 21.4488 30.5148 21.2208 30.7168C20.8624 30.4108 20.4524 30.0592 20.0032 29.6816C16.7284 26.908 9.912 21.14 9.6712 17.7284C9.5608 15.4884 10.6152 14.1996 11.5204 13.5096C12.9528 12.422 14.9904 12.084 16.7028 12.6504C18.4736 13.2364 20.98 16.4524 20.98 16.4524C20.98 16.4524 23.4932 13.2364 25.2576 12.6504C26.976 12.084 29.0076 12.4224 30.4396 13.5096Z" fill="#B39C59"/>
</svg>
